<svg xmlns="http://www.w3.org/2000/svg" version="1.1" xmlns:xlink="http://www.w3.org/1999/xlink" width="512" height="512" x="0" y="0" viewBox="0 0 512 512" style="enable-background:new 0 0 512 512" xml:space="preserve" class="hovered-paths"><g><circle cx="256" cy="267" r="245" style="" fill="#1a2b63" data-original="#1a2b63" class=""></circle><path d="M216.796 378.925c12.65 0 24.304 6.362 31.175 17.02a.998.998 0 0 0 1.59.12c10.3-11.651 25.108-18.333 40.627-18.333 5.288 0 10.396.774 15.231 2.193l-17.846-45.745h-63.146l-18.041 46.244a36.903 36.903 0 0 1 10.41-1.499z" style="" fill="#d9eafc" data-original="#d9eafc" class=""></path><path d="M232.659 334.179h-8.232l-18.041 46.244a37.042 37.042 0 0 1 8.794-1.44l17.479-44.804z" style="" fill="#aec1ed" data-original="#aec1ed"></path><path d="M197.586 426.192a1.004 1.004 0 0 0 1.146.841 68.044 68.044 0 0 1 10.655-.856c17.099 0 33.41 6.425 45.931 18.091a.997.997 0 0 0 .682.268c.245 0 .49-.089.682-.268 12.52-11.666 28.832-18.091 45.931-18.091 3.499 0 7.085.288 10.655.856a.996.996 0 0 0 .748-.182c.215-.158.358-.395.398-.659 1.848-12.438 6.529-24.218 13.552-34.499-9.878-9.272-23.159-14.962-37.778-14.962-16.477 0-31.259 7.226-41.376 18.671-6.776-10.511-18.578-17.478-32.015-17.478-12.889 0-24.273 6.411-31.162 16.212 6.13 9.689 10.248 20.591 11.951 32.056z" style="" fill="#aec1ed" data-original="#aec1ed"></path><path d="M198.576 426.045c-6.018-40.51-40.935-71.591-83.119-71.591-29.285 0-55.061 14.984-70.105 37.697 23.034 38.687 56.425 70.475 96.344 91.571 4.269-29.566 27.448-53.001 56.88-57.677z" style="" fill="#445ea0" data-original="#445ea0"></path><path d="M123.849 364.787c21.432 0 41.078 7.602 56.425 20.237-15.413-18.665-38.719-30.57-64.817-30.57-29.285 0-55.061 14.984-70.105 37.697a244.663 244.663 0 0 0 6.196 9.852c16.119-22.526 42.488-37.216 72.301-37.216z" style="" fill="#293d7c" data-original="#293d7c"></path><path d="M396.543 354.454c-42.184 0-77.101 31.082-83.119 71.591 29.432 4.676 52.611 28.111 56.88 57.677 39.918-21.096 73.31-52.885 96.344-91.571-15.044-22.713-40.82-37.697-70.105-37.697z" style="" fill="#445ea0" data-original="#445ea0"></path><path d="M401.627 354.61a85.614 85.614 0 0 0-5.084-.156c-42.184 0-77.101 31.082-83.119 71.591a67.882 67.882 0 0 1 9.174 2.131c8.362-38.279 39.806-67.92 79.029-73.566z" style="" fill="#293d7c" data-original="#293d7c"></path><path d="M302.612 425.177c-18.016 0-34.395 6.976-46.612 18.359-12.217-11.384-28.596-18.359-46.612-18.359-34.435 0-62.92 25.446-67.695 58.558C175.821 501.772 214.713 512 256 512s80.179-10.228 114.307-28.265c-4.775-33.112-33.26-58.558-67.695-58.558z" style="" fill="#293d7c" data-original="#293d7c"></path><path d="M223.686 433.681a71.106 71.106 0 0 1 26.68 5.162c-11.423-8.569-25.6-13.666-40.979-13.666-34.435 0-62.92 25.446-67.695 58.558a243.758 243.758 0 0 0 12.265 6.044c7.007-32.075 35.551-56.098 69.729-56.098z" style="" fill="#1a2b63" data-original="#1a2b63" class=""></path><path d="M278.528 334.179h-15.119l1.929 15.261a7.5 7.5 0 0 0 14.881-1.881l-1.691-13.38zM233.472 334.179l-3.966 31.38a7.5 7.5 0 0 0 7.451 8.441 7.504 7.504 0 0 0 7.432-6.561l4.204-33.261h-15.121v.001z" style="" fill="#aec1ed" data-original="#aec1ed"></path><path d="M179.108 195.717c0-8.155.306-16.288.878-24.362-24.06 13.549-40.636 43.733-40.636 78.678 0 18.456 4.589 36.057 13.27 50.9a4.424 4.424 0 0 0 5.494 1.862c11.409-4.664 23.601-7.06 36.244-7.16-9.983-30.728-15.25-65.044-15.25-99.918z" style="" fill="#fe3745" data-original="#fe3745" class="hovered-path"></path><path d="M150.689 250.033c0-28.863 11.315-54.467 28.808-70.143.134-2.851.289-5.697.49-8.535-24.06 13.549-40.636 43.733-40.636 78.678 0 18.456 4.589 36.057 13.27 50.9a4.424 4.424 0 0 0 5.494 1.862 94.553 94.553 0 0 1 5.711-2.098c-8.593-14.794-13.137-32.305-13.137-50.664z" style="" fill="#b7092b" data-original="#b7092b" class=""></path><path d="M332.013 171.355a344.93 344.93 0 0 1 .878 24.362c0 34.873-5.267 69.189-15.251 99.918 12.644.1 24.835 2.496 36.244 7.16a4.425 4.425 0 0 0 5.494-1.862c8.682-14.843 13.27-32.444 13.27-50.9.001-34.945-16.575-65.129-40.635-78.678zM217.708 307.125v23.054c0 2.75 2.25 5 5 5h66.583c2.75 0 5-2.25 5-5v-23.054h-76.583z" style="" fill="#fe3745" data-original="#fe3745" class="hovered-path"></path><path d="M234.715 330.179v-23.054h-17.007v23.054c0 2.75 2.25 5 5 5h17.007c-2.75 0-5-2.25-5-5z" style="" fill="#b7092b" data-original="#b7092b" class=""></path><path d="M316.854 90.318H195.145c-11.154 32.153-17.037 68.343-17.037 105.399 0 38.522 6.389 76.387 18.475 109.5a4.426 4.426 0 0 0 4.157 2.908h110.519a4.425 4.425 0 0 0 4.157-2.908c12.086-33.113 18.475-70.978 18.475-109.5.001-37.056-5.882-73.245-17.037-105.399z" style="" fill="#eef6ff" data-original="#eef6ff" class=""></path><path d="M210.756 305.217c-12.087-33.113-18.475-70.978-18.475-109.5 0-37.056 5.883-73.246 17.037-105.399h-14.172c-11.154 32.153-17.037 68.343-17.037 105.399 0 38.522 6.389 76.387 18.475 109.5a4.426 4.426 0 0 0 4.157 2.908h14.172a4.426 4.426 0 0 1-4.157-2.908z" style="" fill="#d9eafc" data-original="#d9eafc" class=""></path><path d="M227.179 90.318v16.594c0 2.75 2.25 5 5 5h47.642c2.75 0 5-2.25 5-5V90.318h-57.642z" style="" fill="#ea2a3d" data-original="#ea2a3d" class=""></path><path d="M238.517 106.912V90.318h-11.338v16.594c0 2.75 2.25 5 5 5h11.338c-2.75 0-5-2.25-5-5z" style="" fill="#b7092b" data-original="#b7092b" class=""></path><path d="M256 0a4.42 4.42 0 0 0-2.785.986c-22.338 18.089-41.154 45.529-54.411 79.354a270.53 270.53 0 0 0-4.006 10.978h122.403a270.53 270.53 0 0 0-4.006-10.978C299.938 46.515 281.123 19.075 258.784.986A4.415 4.415 0 0 0 256 0z" style="" fill="#fe3745" data-original="#fe3745" class="hovered-path"></path><path d="M263.086 4.628a135.492 135.492 0 0 0-4.301-3.642C257.973.329 256.987 0 256 0s-1.973.329-2.785.986c-22.338 18.089-41.154 45.529-54.411 79.354a270.53 270.53 0 0 0-4.006 10.978h14.172a270.53 270.53 0 0 1 4.006-10.978c12.398-31.631 29.656-57.673 50.11-75.712z" style="" fill="#b7092b" data-original="#b7092b" class=""></path><circle cx="256" cy="180.93" r="51.02" style="" fill="#445ea0" data-original="#445ea0"></circle><circle cx="256" cy="180.93" r="32.731" style="" fill="#69cdff" data-original="#69cdff" class=""></circle><path d="M235.268 180.932c0 16.027 11.521 29.355 26.732 32.174-1.946.36-3.949.558-6 .558-18.078 0-32.731-14.655-32.731-32.732s14.654-32.731 32.731-32.731c2.05 0 4.054.198 6 .558-15.211 2.819-26.732 16.146-26.732 32.173z" style="" fill="#52bbef" data-original="#52bbef" class=""></path><path d="M110.136 178.737a2.836 2.836 0 0 1-2.62-1.751c-5.583-13.479-9.699-17.594-23.178-23.177a2.835 2.835 0 0 1 0-5.24c13.48-5.585 17.595-9.701 23.178-23.179a2.836 2.836 0 0 1 5.24 0c5.584 13.478 9.7 17.594 23.179 23.179a2.836 2.836 0 0 1 0 5.24c-13.479 5.582-17.595 9.698-23.179 23.177a2.836 2.836 0 0 1-2.62 1.751z" style="" fill="#ffd00d" data-original="#ffd00d" class=""></path><path d="M113.185 171.317c-5.583-13.479-9.699-17.594-23.178-23.177a2.832 2.832 0 0 1-1.48-1.413 101.32 101.32 0 0 1-4.189 1.842 2.835 2.835 0 0 0 0 5.24c13.479 5.583 17.595 9.698 23.178 23.177a2.836 2.836 0 0 0 5.24 0 100.706 100.706 0 0 1 1.841-4.188 2.84 2.84 0 0 1-1.412-1.481z" style="" fill="#ffaf10" data-original="#ffaf10" class=""></path><path d="M411.469 201.404a2.493 2.493 0 0 1-2.303-1.539c-4.907-11.848-8.525-15.465-20.373-20.372a2.493 2.493 0 0 1 0-4.606c11.849-4.909 15.466-8.527 20.373-20.374a2.493 2.493 0 0 1 4.606 0c4.908 11.848 8.526 15.465 20.375 20.374a2.492 2.492 0 0 1-.001 4.606c-11.848 4.907-15.466 8.524-20.374 20.372a2.492 2.492 0 0 1-2.303 1.539z" style="" fill="#ffffff" data-original="#ffffff" class=""></path><path d="M414.149 194.882c-4.908-11.848-8.525-15.465-20.374-20.373a2.488 2.488 0 0 1-1.301-1.242 90.114 90.114 0 0 1-3.682 1.619 2.493 2.493 0 0 0 0 4.606c11.849 4.907 15.466 8.524 20.373 20.372a2.493 2.493 0 0 0 4.606 0 87.438 87.438 0 0 1 1.619-3.682 2.492 2.492 0 0 1-1.241-1.3z" style="" fill="#d9eafc" data-original="#d9eafc" class=""></path><path d="M385.469 96.071a2.906 2.906 0 0 1-2.684-1.793c-5.718-13.806-9.933-18.021-23.739-23.738a2.904 2.904 0 0 1 0-5.367c13.807-5.72 18.022-9.935 23.739-23.739a2.905 2.905 0 0 1 5.368 0c5.719 13.805 9.934 18.02 23.74 23.739a2.904 2.904 0 0 1-.001 5.367c-13.806 5.717-18.02 9.933-23.74 23.738a2.904 2.904 0 0 1-2.683 1.793z" style="" fill="#ff9518" data-original="#ff9518" class=""></path><path d="M388.592 88.472c-5.719-13.805-9.934-18.02-23.74-23.738a2.906 2.906 0 0 1-1.516-1.447 100.879 100.879 0 0 1-4.291 1.886 2.904 2.904 0 0 0 0 5.367c13.806 5.718 18.022 9.933 23.739 23.738a2.906 2.906 0 0 0 5.368 0 103.423 103.423 0 0 1 1.886-4.29 2.9 2.9 0 0 1-1.446-1.516z" style="" fill="#ef8318" data-original="#ef8318" class=""></path></g></svg>