<svg xmlns="http://www.w3.org/2000/svg" version="1.1" xmlns:xlink="http://www.w3.org/1999/xlink" width="512" height="512" x="0" y="0" viewBox="0 0 512 512" style="enable-background:new 0 0 512 512" xml:space="preserve" class=""><g><path d="M275.105 167.284H236.89l-4.915 81.106h48.045z" style="" fill="#b2b2b2" data-original="#b2b2b2"></path><path d="M283.879 311.762c0-23.433-.005-23.433-.005 0 0 .098.004.195.004.293l-3.859-63.665h-48.045l-3.859 63.66c-.058 23.32-7.151 45.017-19.264 63.078h94.295c-12.161-18.136-19.267-39.937-19.267-63.366z" style="" fill="#ccc8ca" data-original="#ccc8ca"></path><path d="M234.125 212.91h43.744l-.92-15.209h-41.903z" style="" fill="#999999" data-original="#999999"></path><path d="M114.06 425.822C51.167 425.822 0 374.655 0 311.762s51.167-114.06 114.06-114.06 114.06 51.167 114.06 114.06-51.166 114.06-114.06 114.06z" style="" fill="#0072a2" data-original="#0072a2" class=""></path><path d="m238.251 144.217-.002-.092c-.191-31.984-26.26-57.947-58.288-57.947a58.317 58.317 0 0 0-43.942 19.984c-.058.066-.106.137-.161.205L27.738 237.208c-.171.208-.33.423-.476.642 20.936-24.55 52.077-40.148 86.796-40.148 62.893 0 114.06 51.167 114.06 114.06 0 .098-.004.195-.004.293l10.128-167.119c.005-.078 0-.154.002-.232.003-.076.012-.151.012-.228.002-.088-.004-.173-.005-.259z" style="" fill="#006289" data-original="#006289" class=""></path><path d="M114.06 390.336c-43.326 0-78.575-35.248-78.575-78.575s35.249-78.575 78.575-78.575 78.575 35.248 78.575 78.575-35.249 78.575-78.575 78.575z" style="" fill="#21d8de" data-original="#21d8de" class=""></path><path d="M238.249 144.125c-.191-31.984-26.26-57.947-58.288-57.947a58.317 58.317 0 0 0-43.942 19.984c-.058.066-.106.137-.161.205l-26.369 31.91c.074-.044.151-.08.226-.126 13.389-8.381 28.864-12.809 44.748-12.809 37.992 0 70.967 25.052 81.256 61.293l2.527-41.699c.005-.078 0-.154.002-.232.003-.076.012-.151.012-.228 0-.086-.006-.171-.007-.259-.003-.031-.003-.062-.004-.092z" style="" fill="#ff4c4d" data-original="#ff4c4d"></path><path d="m273.744 144.217.002-.092c.191-31.984 26.26-57.947 58.288-57.947a58.317 58.317 0 0 1 43.942 19.984c.058.066.105.137.161.205l108.119 130.841c.171.208.329.423.475.642-20.936-24.55-52.077-40.148-86.796-40.148-62.893 0-114.06 51.167-114.06 114.06 0 .098.004.195.004.293l-10.128-167.119c-.005-.078 0-.154-.002-.232-.003-.076-.012-.151-.012-.228 0-.088.006-.173.007-.259z" style="" fill="#006289" data-original="#006289" class=""></path><path d="M484.256 237.208 376.137 106.367c-.056-.067-.104-.138-.161-.205a58.312 58.312 0 0 0-43.942-19.984c-5.26 0-10.355.713-15.206 2.025a58.324 58.324 0 0 1 28.729 17.96c.058.066.106.137.161.205l77.884 94.252c24.219 5.594 45.514 18.919 61.128 37.229a7.297 7.297 0 0 0-.474-.641z" style="" fill="#005772" data-original="#005772"></path><path d="M273.746 144.125c.191-31.984 26.26-57.947 58.288-57.947a58.317 58.317 0 0 1 43.942 19.984c.058.066.105.137.161.205l26.369 31.91c-.074-.044-.152-.08-.226-.126-13.389-8.381-28.864-12.809-44.748-12.809-37.992 0-70.967 25.052-81.256 61.293l-2.527-41.699c-.005-.078 0-.154-.002-.232-.003-.076-.012-.151-.012-.228 0-.086.006-.171.007-.259.003-.031.003-.062.004-.092z" style="" fill="#ff4c4d" data-original="#ff4c4d"></path><path d="M328.679 86.281c-.755.044-1.507.099-2.255.171-.315.031-.631.068-.946.104a57.909 57.909 0 0 0-2.874.396c-.354.058-.705.125-1.056.189-.83.152-1.657.32-2.475.508-.206.047-.412.093-.616.142a59.05 59.05 0 0 0-1.62.411l-.008.002a58.324 58.324 0 0 1 28.729 17.96c.058.066.106.137.161.205l15.765 19.077c14.49.672 28.521 5.023 40.797 12.707.074.046.15.082.225.126l-26.368-31.91c-.056-.067-.104-.138-.161-.205a58.312 58.312 0 0 0-43.942-19.984c-.877 0-1.747.027-2.614.066-.248.009-.495.021-.742.035z" style="" fill="#f23939" data-original="#f23939"></path><path d="M255.998 326.969c-8.386 0-15.208-6.822-15.208-15.208s6.822-15.208 15.208-15.208 15.208 6.822 15.208 15.208-6.822 15.208-15.208 15.208z" style="" fill="#006289" data-original="#006289" class=""></path><path d="M397.94 425.822c-62.893 0-114.06-51.167-114.06-114.06s51.167-114.06 114.06-114.06S512 248.868 512 311.762s-51.167 114.06-114.06 114.06z" style="" fill="#0072a2" data-original="#0072a2" class=""></path><path d="M397.94 390.336c-43.326 0-78.575-35.248-78.575-78.575s35.249-78.575 78.575-78.575 78.575 35.248 78.575 78.575-35.25 78.575-78.575 78.575z" style="" fill="#21d8de" data-original="#21d8de" class=""></path><path d="M397.94 233.186a78.68 78.68 0 0 0-15.21 1.49c36.071 7.105 63.366 38.961 63.366 77.084s-27.294 69.979-63.366 77.085a78.601 78.601 0 0 0 15.21 1.49c43.326 0 78.575-35.248 78.575-78.575s-35.25-78.574-78.575-78.574zM114.06 233.186a78.68 78.68 0 0 0-15.21 1.49c36.071 7.105 63.366 38.961 63.366 77.084s-27.294 69.979-63.366 77.085a78.601 78.601 0 0 0 15.21 1.49c43.326 0 78.575-35.248 78.575-78.575s-35.249-78.574-78.575-78.574z" style="" fill="#11b9c1" data-original="#11b9c1"></path></g></svg>